<svg xmlns="http://www.w3.org/2000/svg" viewBox="0 0 30.46 35.54"><defs><style>.cls-1{fill:#fff;}</style></defs><g id="Layer_2" data-name="Layer 2"><g id="Layer_1-2" data-name="Layer 1"><path class="cls-1" d="M16.5,0a3.81,3.81,0,0,0-3.65,2.86,3.64,3.64,0,0,0-1.43-.32A3.83,3.83,0,0,0,7.61,6.35V20L6.5,18.88a3.81,3.81,0,1,0-5.39,5.4l8.61,8.61a8.55,8.55,0,0,0,6,2.65h5.87a8.9,8.9,0,0,0,8.88-8.88V11.42a3.77,3.77,0,0,0-5.07-3.57V6.35a3.83,3.83,0,0,0-3.81-3.81,3.64,3.64,0,0,0-1.43.32A3.82,3.82,0,0,0,16.5,0Zm0,2.54a1.25,1.25,0,0,1,1.27,1.27V16.5h2.54V6.35a1.27,1.27,0,1,1,2.54,0V16.5h2.54V11.42a1.27,1.27,0,0,1,2.53,0V26.66A6.32,6.32,0,0,1,21.58,33H15.71a5.89,5.89,0,0,1-4.17-1.94L2.89,22.49a1.29,1.29,0,1,1,1.83-1.82L8,24l2.18,2.18V6.35a1.27,1.27,0,0,1,2.54,0V16.5h2.54V3.81A1.25,1.25,0,0,1,16.5,2.54Z"/></g></g></svg>