<svg xmlns="http://www.w3.org/2000/svg" viewBox="0 0 32.43 33.9"><defs><style>.cls-1{fill:#fff;}</style></defs><g id="Layer_2" data-name="Layer 2"><g id="Layer_1-2" data-name="Layer 1"><path class="cls-1" d="M17.22,0l-.46.41-10,9.91H0V33.9H24.82a4.45,4.45,0,0,0,4.33-3.5l3.18-14.74A4.46,4.46,0,0,0,28,10.32H19.53l.27-1.11a3.36,3.36,0,0,0,.92-.92,7.27,7.27,0,0,0,1.39-4.38A4.14,4.14,0,0,0,17.82,0Zm1.06,3.09c.63.12.88.37.88.82a4.37,4.37,0,0,1-.78,2.68,2.13,2.13,0,0,1-.65.64l-.51.28-.18.6-.87,3.31-.47,1.84H28a1.45,1.45,0,0,1,1.43,1.8L26.3,29.8A1.48,1.48,0,0,1,24.82,31h-16V12.39ZM3,13.26H5.89V31H3Z"/></g></g></svg>